<svg width="173" height="96" viewBox="0 0 173 96" fill="none" xmlns="http://www.w3.org/2000/svg">
<path d="M82.1649 1.05444C81.6442 1.96529 81.4798 70.3179 82.0005 70.9515C82.2471 71.2684 83.7268 71.3872 86.5767 71.308L90.7967 71.1892L90.879 36.7356C90.9338 10.7173 90.8516 2.04449 90.6049 1.37126C90.3035 0.539627 90.1665 0.500023 86.4123 0.500023C83.3432 0.500023 82.4389 0.618828 82.1649 1.05444Z" fill="url(#paint0_linear_742_103)"/>
<path d="M158.865 16.6569C160.235 13.6868 161.687 10.8751 162.098 10.4395C162.756 9.64742 163.167 9.60781 167.88 9.60781H172.922L172.785 10.4791C172.237 14.2016 170.237 23.7852 170.072 23.6268C169.963 23.508 169.935 23.6664 170.018 23.9832C170.182 24.6565 169.196 29.2107 168.702 30.1215C168.456 30.5571 168.428 30.6759 168.675 30.4779C168.894 30.2799 168.867 30.7948 168.565 32.26C168.366 33.1872 168.024 34.837 167.727 36.2718C167.656 36.6143 167.587 36.9446 167.524 37.2498C167.223 38.8339 166.839 39.9824 166.702 39.824C166.592 39.6655 166.565 39.7447 166.675 40.022C166.949 40.6952 166.017 46.081 165.661 45.7642C165.496 45.6454 165.469 45.7246 165.578 45.9622C165.825 46.5959 165.469 49.2492 165.167 48.972C165.03 48.8531 165.003 49.0116 165.085 49.3284C165.14 49.6056 165.058 50.3976 164.893 51.0312C164.702 51.6649 164.537 52.4569 164.51 52.7737C164.482 53.0905 164.318 54.1598 164.126 55.1498C163.962 56.1399 163.825 57.6051 163.825 58.3972V59.902H146.013C136.23 59.902 128.201 59.8228 128.201 59.704C128.201 59.6248 128.914 59.2288 129.791 58.912C137.71 55.7043 140.176 53.6054 144.095 46.8731C147.246 41.408 150.041 35.6658 158.865 16.6569ZM170.045 19.5875C169.963 19.8647 169.908 19.6667 169.908 19.1122C169.908 18.5578 169.963 18.3598 170.045 18.5974C170.1 18.8746 170.1 19.3498 170.045 19.5875ZM164.702 24.5377C164.619 25.1713 164.51 25.4089 164.428 25.1317C164.318 24.6169 164.537 23.4684 164.729 23.4684C164.784 23.4684 164.784 23.9436 164.702 24.5377ZM166.209 41.1704C166.127 41.5664 166.072 41.3288 166.072 40.6952C166.072 40.022 166.127 39.7447 166.209 39.9824C166.264 40.2596 166.264 40.814 166.209 41.1704ZM165.661 41.7644C165.578 42.0417 165.524 41.8436 165.524 41.2892C165.524 40.7348 165.578 40.5368 165.661 40.7744C165.715 41.0516 165.715 41.5268 165.661 41.7644Z" fill="url(#paint1_linear_742_103)"/>
<path d="M71.4259 20.4595C70.96 20.9348 70.9326 22.6376 70.9326 45.7255C70.9326 64.4175 71.0148 70.5558 71.2614 70.9122C71.4807 71.229 72.8234 71.3875 75.4541 71.3875C78.0847 71.3875 79.4275 71.229 79.6467 70.9122C80.1125 70.239 80.1125 21.0536 79.6467 20.3803C79.1534 19.6675 72.0561 19.7467 71.4259 20.4595Z" fill="#0B689F"/>
<path d="M93.1838 38.1992C92.9372 38.5556 92.855 42.7534 92.855 54.6339C92.855 70.1182 92.8824 70.5934 93.403 70.9895C93.7319 71.2271 95.4308 71.3459 97.7053 71.3063L101.487 71.1875L101.651 54.9507C101.788 44.1394 101.733 38.5556 101.569 38.1992C101.185 37.5259 93.6497 37.5259 93.1838 38.1992Z" fill="#0B689F"/>
<path d="M61.06 43.5472C60.0187 44.062 59.9639 44.656 59.9639 57.685C59.9639 64.6945 60.0735 70.6348 60.1831 70.912C60.3749 71.2684 61.471 71.3872 64.7867 71.308L69.1438 71.1892L69.226 57.7642C69.2808 45.3689 69.2534 44.2996 68.8149 43.8244C68.4587 43.4284 67.4174 43.27 64.8964 43.3096C63.0056 43.3492 61.2792 43.468 61.06 43.5472Z" fill="#0B8BBA"/>
<path d="M50.5158 53.3288C50.05 53.8041 50.0226 54.5565 49.9952 62.5164L49.9678 71.1892L54.0508 71.308C57.1473 71.3872 58.1886 71.2684 58.3804 70.912C58.49 70.6348 58.5996 66.5558 58.5996 61.8432C58.5996 54.3585 58.5448 53.21 58.1612 53.012C57.2569 52.4972 51.0365 52.7744 50.5158 53.3288Z" fill="#0B689F"/>
<path d="M105.268 56.616C105.131 56.6556 104.72 56.7744 104.309 56.8932L103.542 57.1308V63.7839C103.542 68.4173 103.652 70.5954 103.871 70.9122C104.09 71.229 105.46 71.3875 108.255 71.3875H112.311L112.338 68.1005C112.393 60.8534 112.311 57.3684 112.037 56.9724C111.818 56.6556 106.118 56.3388 105.268 56.616Z" fill="url(#paint2_linear_742_103)"/>
<path d="M17.9066 61.4871C13.1386 62.3979 8.4253 65.0116 6.69893 67.7441C6.12347 68.655 4.80814 70.0806 3.76683 70.9915C-1.43968 75.4665 -1.27527 78.001 4.4245 81.2483C11.5492 85.2481 16.9201 86.5153 27.2236 86.5945L34.6223 86.6341L34.8141 84.7333C35.0607 82.1987 35.7732 80.5355 37.0885 79.5454C38.1024 78.793 38.5683 78.7138 42.7883 78.793C47.9948 78.8722 50.1048 79.5058 54.2152 82.0799C57.7776 84.3372 58.0516 84.5352 58.0516 85.0897C58.0516 85.4857 57.531 85.3273 56.2156 84.6144C48.8443 80.5751 44.131 79.3474 40.4043 80.4959C38.4039 81.0899 37.6914 82.0403 37.0885 85.0897C36.5679 87.743 36.6775 91.6636 37.3626 93.604C37.9654 95.2277 39.8014 95.7029 44.5147 95.4257C48.7895 95.2277 51.4202 94.3169 55.3388 91.7032C57.3391 90.3963 57.5858 90.3171 58.2434 90.8319C59.2025 91.5447 63.3404 91.4655 65.8066 90.6339C68.1084 89.8419 70.9583 88.1786 71.4242 87.3074C71.753 86.6737 73.5342 86.6341 93.3463 86.5945C116.776 86.5549 115.159 86.6737 123.133 84.06C129.271 82.0007 163.305 69.645 166.292 68.3778C169.033 67.1897 169.855 66.1601 169.855 63.9028C169.855 62.1207 169.471 61.4871 168.375 61.4871C167.937 61.4871 164.484 63.1503 160.675 65.2096C152.207 69.843 150.207 70.7935 146.562 72.1003L143.685 73.1696L83.2073 73.2488L22.7021 73.3676V72.3775C22.7021 71.7835 22.8117 71.4271 22.9487 71.5855C23.0858 71.7043 28.8129 71.6647 35.691 71.5459L48.1592 71.2687L48.2415 68.2589C48.2963 66.5957 48.2963 64.2988 48.2415 63.1503L48.1592 61.091L33.855 61.1306C25.9904 61.1702 18.8109 61.3286 17.9066 61.4871ZM8.06906 68.4174C7.93205 69.2094 7.74023 69.4074 7.02776 69.4074H6.15087L7.05516 68.1797C8.06906 66.8729 8.31569 66.9125 8.06906 68.4174ZM10.3435 67.5857C10.6175 68.0609 10.5627 68.2589 10.1243 68.5758C9.54881 69.051 8.4527 69.1698 8.4527 68.7738C8.4527 68.655 8.58971 68.2193 8.72673 67.7837C9.08296 66.9125 9.90504 66.7937 10.3435 67.5857ZM21.5238 69.0906C21.4416 69.3678 21.3868 69.1698 21.3868 68.6154C21.3868 68.0609 21.4416 67.8629 21.5238 68.1005C21.5786 68.3778 21.5786 68.853 21.5238 69.0906Z" fill="url(#paint3_linear_742_103)"/>
<path d="M113.126 67.108V71.5029H129.25C138.129 71.5029 145.783 71.0634 146.191 70.4774C146.498 69.8914 149.967 67.9869 153.743 66.229L160.581 63.0061L136.905 62.8596L113.126 62.7131V67.108Z" fill="url(#paint4_linear_742_103)"/>
<defs>
<linearGradient id="paint0_linear_742_103" x1="86.2889" y1="71.3317" x2="86.2889" y2="0.500023" gradientUnits="userSpaceOnUse">
<stop stop-color="#0B689F"/>
<stop offset="0.4375" stop-color="#0F8DB5"/>
</linearGradient>
<linearGradient id="paint1_linear_742_103" x1="150.562" y1="59.902" x2="150.562" y2="9.60781" gradientUnits="userSpaceOnUse">
<stop offset="0.264423" stop-color="#0B689F"/>
<stop offset="0.5625" stop-color="#0B8BBA"/>
</linearGradient>
<linearGradient id="paint2_linear_742_103" x1="107.948" y1="71.3875" x2="107.948" y2="56.5097" gradientUnits="userSpaceOnUse">
<stop stop-color="#0B8BBA"/>
<stop offset="0.620192" stop-color="#08679C"/>
</linearGradient>
<linearGradient id="paint3_linear_742_103" x1="84.9274" y1="61.091" x2="84.9274" y2="95.5" gradientUnits="userSpaceOnUse">
<stop stop-color="#1C4680"/>
<stop offset="1" stop-color="#0B8BBA"/>
</linearGradient>
<linearGradient id="paint4_linear_742_103" x1="136.853" y1="71.5029" x2="136.853" y2="56.3888" gradientUnits="userSpaceOnUse">
<stop stop-color="#08679C"/>
<stop offset="1" stop-color="#0B94BE"/>
</linearGradient>
</defs>
</svg>
